<?xml version="1.0" standalone="no"?>
<!DOCTYPE svg PUBLIC "-//W3C//DTD SVG 20010904//EN"
 "http://www.w3.org/TR/2001/REC-SVG-20010904/DTD/svg10.dtd">
<svg version="1.0" xmlns="http://www.w3.org/2000/svg"
 width="128.000000pt" height="128.000000pt" viewBox="0 0 128.000000 128.000000"
 preserveAspectRatio="xMidYMid meet">

<g transform="translate(0.000000,128.000000) scale(0.100000,-0.100000)"
fill="#000000" stroke="none">
<path d="M0 1123 c0 -122 3 -154 12 -145 24 24 47 12 83 -43 44 -69 70 -83
113 -61 49 25 102 29 140 9 l32 -18 0 -320 c0 -274 -2 -324 -16 -343 -17 -24
-43 -29 -62 -10 -8 8 -13 71 -14 208 l-2 195 -6 -198 c-4 -161 -8 -200 -20
-207 -22 -14 -36 -12 -54 6 -14 13 -16 47 -16 212 0 108 -3 234 -7 279 -5 70
-9 84 -26 89 -30 9 -97 74 -129 123 l-28 45 0 -472 0 -472 640 0 640 0 0 472
0 472 -28 -45 c-33 -52 -94 -107 -132 -121 -26 -8 -27 -13 -33 -91 -4 -45 -7
-172 -7 -282 0 -212 -3 -225 -46 -225 -39 0 -43 19 -47 216 l-2 189 -3 -190
c-1 -133 -6 -195 -14 -203 -18 -18 -56 -14 -68 7 -6 13 -10 138 -10 339 l0
319 -44 24 -44 23 26 25 c15 14 36 24 47 22 26 -4 66 -41 58 -54 -4 -6 0 -8
11 -4 10 4 25 3 35 -2 12 -7 26 -4 49 11 35 22 44 35 13 18 -11 -5 -36 -10
-56 -10 -108 0 -119 162 -13 185 42 10 84 -11 103 -52 16 -33 16 -47 1 -84 -5
-10 1 -19 19 -27 27 -12 33 -40 13 -60 -7 -7 -8 -12 -2 -12 15 0 49 34 84 85
31 45 72 61 83 33 3 -7 6 58 6 145 l1 157 -640 0 -640 0 0 -157z m345 -48 c54
-53 25 -147 -50 -161 -95 -17 -153 107 -78 166 37 29 97 27 128 -5z m239 -6
c30 -36 34 -84 8 -115 -61 -76 -172 -40 -172 56 0 85 109 125 164 59z m237 0
c40 -42 40 -90 0 -130 -62 -61 -161 -21 -161 65 0 52 44 96 95 96 28 0 44 -7
66 -31z m-377 -142 c21 -23 37 -29 74 -31 26 -1 57 -8 69 -15 l23 -12 -6 -332
c-5 -251 -10 -335 -19 -346 -18 -19 -62 -6 -70 20 -7 21 -7 21 -19 -2 -13 -28
-41 -36 -61 -19 -12 10 -15 45 -15 175 0 89 -3 237 -7 330 l-6 167 -31 19
c-17 10 -35 21 -41 23 -5 2 1 15 14 29 30 33 61 30 95 -6z m233 5 c13 -13 21
-28 17 -33 -3 -6 4 -7 19 -4 14 4 28 2 32 -5 5 -8 11 -8 21 1 11 9 22 8 49 -7
l35 -19 -6 -330 c-4 -191 -11 -335 -17 -343 -13 -16 -52 -15 -66 1 -6 9 -12
84 -14 203 l-2 189 -3 -197 -2 -198 -25 -6 c-60 -15 -66 9 -65 238 0 90 1 225
0 300 l0 137 -27 15 c-55 30 -56 31 -32 58 27 30 55 30 86 0z m-463 -7 l29
-23 -38 -16 c-28 -12 -41 -13 -51 -5 -19 16 -17 46 4 58 23 14 23 14 56 -14z"/>
</g>
</svg>
